<?xml version="1.0" encoding="UTF-8"?>
<svg version="1.1" xmlns="http://www.w3.org/2000/svg" width="512" height="512">
<path d="M0 0 C3.43615111 2.12017834 5.80717883 4.09622164 7 8 C7.8860239 15.80071608 5.01492817 21.12022639 1.5234375 27.98046875 C0.96057037 29.11148514 0.39770325 30.24250153 -0.18222046 31.40779114 C-1.37348546 33.79138072 -2.57054356 36.17076733 -3.77880859 38.5456543 C-5.31907674 41.57501788 -6.8321399 44.6170235 -8.33727455 47.66396618 C-9.78644192 50.5889778 -11.25735436 53.50298497 -12.7265625 56.41796875 C-13.53318832 58.04776924 -13.53318832 58.04776924 -14.35610962 59.710495 C-19.28782869 69.334094 -24.68019663 73.15278681 -34.265625 77.86328125 C-35.14023376 78.30012741 -36.01484253 78.73697357 -36.91595459 79.1870575 C-38.75295067 80.10254989 -40.59187723 81.01417787 -42.43261719 81.92211914 C-45.25926199 83.3170708 -48.07920449 84.72490414 -50.8984375 86.13476562 C-52.6871227 87.02419667 -54.47617254 87.91289487 -56.265625 88.80078125 C-57.11143127 89.22257156 -57.95723755 89.64436188 -58.82867432 90.07893372 C-59.60998718 90.4632103 -60.39130005 90.84748688 -61.19628906 91.2434082 C-61.88434631 91.58362503 -62.57240356 91.92384186 -63.28131104 92.27436829 C-65 93 -65 93 -67 93 C-66.89171875 94.80017578 -66.89171875 94.80017578 -66.78125 96.63671875 C-66.2615449 105.75837547 -65.89506222 114.86249624 -65.875 124 C-65.87048828 124.82201904 -65.86597656 125.64403809 -65.86132812 126.4909668 C-65.87242849 131.12583164 -66.10875224 135.69799014 -66.50830078 140.31640625 C-66.59991486 141.3844751 -66.69152893 142.45254395 -66.78591919 143.55297852 C-66.85656586 144.36049561 -66.92721252 145.1680127 -67 146 C-66.18869125 145.98667633 -65.37738251 145.97335266 -64.54148865 145.95962524 C-56.8766358 145.83914906 -49.21224523 145.74792574 -41.54669094 145.68912697 C-37.60615419 145.6578806 -33.66640302 145.61553402 -29.72631836 145.54736328 C-25.92018537 145.48192609 -22.11480546 145.44624364 -18.30815315 145.43073654 C-16.859662 145.41969331 -15.41120974 145.39812739 -13.96304131 145.36561966 C-1.20947821 145.09085248 -1.20947821 145.09085248 3.04980469 148.46435547 C4.58180237 150.12094116 4.58180237 150.12094116 6 152 C6.51316269 152.67189362 7.02632538 153.34378723 7.55503845 154.03604126 C9.22546131 156.36407658 10.78067785 158.74233916 12.32421875 161.15625 C12.90458389 162.044263 13.48494904 162.932276 14.082901 163.84719849 C15.96097299 166.72517476 17.82418484 169.61245278 19.6875 172.5 C20.97897628 174.48432118 22.27162738 176.46787822 23.56542969 178.45068359 C25.51499568 181.43903003 27.4636878 184.42790912 29.40823364 187.41952515 C35.11772337 196.20266278 40.91678595 204.92371675 46.75 213.625 C47.98215199 215.46324707 49.21402312 217.30167565 50.44444275 219.14108276 C51.46539056 220.66725483 52.48799481 222.19231846 53.51074219 223.71728516 C56.12350533 227.72209424 56.32194969 230.17075464 56 235 C54.42189381 239.1030761 52.94008031 241.92051317 49 244 C43.3607157 245.48962227 40.03183042 244.92761043 35 242 C30.01620135 237.13198662 26.29902876 231.16994461 22.52734375 225.359375 C21.92297989 224.43771545 21.31861603 223.51605591 20.69593811 222.56646729 C18.77181239 219.63065464 16.85427325 216.69061716 14.9375 213.75 C13.67823175 211.82259161 12.41846992 209.89550562 11.15820312 207.96875 C10.53932724 207.02009567 9.92045135 206.07144135 9.28282166 205.09403992 C8.02801036 203.18583359 6.76081396 201.28571487 5.48146057 199.39387512 C2.41065365 194.83356709 -0.39714897 190.34114655 -2.81860352 185.40112305 C-7.50434056 176.27141283 -7.50434056 176.27141283 -15.93978882 171.02337646 C-24.53665689 169.48188868 -33.12966888 169.927718 -41.8125 170.3125 C-44.45103022 170.35964844 -47.08973013 170.39814021 -49.72851562 170.42773438 C-56.15769875 170.51855712 -62.57656803 170.71675259 -69 171 C-69.0424585 171.90008789 -69.08491699 172.80017578 -69.12866211 173.72753906 C-69.65823334 183.22676128 -70.89223968 192.3740849 -72.5625 201.75 C-73.02567929 204.39002671 -73.48389599 207.03085368 -73.94140625 209.671875 C-74.14451416 210.8175293 -74.34762207 211.96318359 -74.55688477 213.14355469 C-75.07664734 216.01232179 -75.07664734 216.01232179 -75 219 C-74.3596431 219.31240631 -73.71928619 219.62481262 -73.05952454 219.94668579 C-67.00569524 222.90327027 -60.9587963 225.87353035 -54.91918659 228.8590641 C-51.81441576 230.39323759 -48.70727706 231.92212955 -45.59399414 233.43896484 C-42.00926686 235.18578342 -38.43612825 236.9555636 -34.86328125 238.7265625 C-33.19583611 239.53318832 -33.19583611 239.53318832 -31.4947052 240.35610962 C-30.45400375 240.87619598 -29.41330231 241.39628235 -28.34106445 241.93212891 C-27.4283931 242.38069244 -26.51572174 242.82925598 -25.57539368 243.29141235 C-19.75242476 247.15453155 -17.234287 251.95677133 -15.13745117 258.45483398 C-14.89288177 259.17598389 -14.64831238 259.89713379 -14.39633179 260.64013672 C-13.59846378 263.004533 -12.82023254 265.37485201 -12.04296875 267.74609375 C-11.49048511 269.40256 -10.93711067 271.05872938 -10.38288879 272.71461487 C-9.22719068 276.17747704 -8.08096604 279.64328667 -6.94165039 283.11157227 C-5.48416411 287.54652389 -4.00539864 291.97401885 -2.51972485 296.39959621 C-1.37516057 299.81572774 -0.24092845 303.23521965 0.89014244 306.65583992 C1.43144264 308.28940665 1.97567015 309.92200651 2.52292824 311.55358696 C3.28710741 313.83772084 4.03749277 316.1259485 4.78442383 318.41577148 C5.01033707 319.08248367 5.23625031 319.74919586 5.4690094 320.43611145 C7.14672558 325.65616272 8.08050448 330.55464775 5.8125 335.6875 C1.17712586 341.60159804 1.17712586 341.60159804 -3.11328125 342.38671875 C-7.04983763 342.57858452 -9.66710893 342.14446216 -13.3125 340.5625 C-19.6696761 334.50100651 -21.35758494 324.87629402 -23.73129463 316.68673897 C-24.96201704 312.4897608 -26.2667021 308.31496575 -27.55827427 304.13639927 C-28.68009193 300.49265682 -29.77488614 296.84471194 -30.81420898 293.17651367 C-35.45924537 274.31131978 -35.45924537 274.31131978 -47.93667603 260.58296204 C-51.15066467 259.06622856 -54.37872628 257.82033886 -57.76394653 256.74154663 C-60.9903357 255.6715731 -63.86448465 254.17166994 -66.88671875 252.6171875 C-68.81842735 251.69914777 -70.75194818 250.7849089 -72.6875 249.875 C-73.69876953 249.39546875 -74.71003906 248.9159375 -75.75195312 248.421875 C-78.16629147 247.27763882 -80.58223252 246.13696714 -83 245 C-83.09869385 245.58628174 -83.1973877 246.17256348 -83.29907227 246.77661133 C-88.66352273 276.17886775 -104.19321314 308.51555608 -124 331 C-124.74121094 331.84949219 -125.48242188 332.69898438 -126.24609375 333.57421875 C-128.46679321 336.07952724 -130.72393449 338.54501161 -133 341 C-133.55042969 341.61617188 -134.10085938 342.23234375 -134.66796875 342.8671875 C-144.50081416 353.40411319 -158.23482502 361.05923752 -172 365 C-173.65 365 -175.3 365 -177 365 C-177 261.38 -177 157.76 -177 51 C-157.695 49.02 -157.695 49.02 -138 47 C-119.49914436 44.10340139 -102.93438213 40.58308514 -86.390625 31.76953125 C-83.62299616 30.32513509 -80.92100848 29.08701652 -78 28 C-75.32684781 35.35312831 -73.73670236 42.69033107 -72.3125 50.375 C-71.97508789 52.13650391 -71.97508789 52.13650391 -71.63085938 53.93359375 C-70 62.5687215 -70 62.5687215 -70 66 C-56.83137304 62.58591153 -43.86280069 57.53260177 -36.33642578 45.64306641 C-31.5162758 37.26156192 -27.50387957 28.51329235 -23.62890625 19.6640625 C-23.16326767 18.60571701 -22.69762909 17.54737152 -22.21788025 16.45695496 C-21.34721167 14.44529193 -20.50172959 12.42247456 -19.68605042 10.38789368 C-15.82583072 1.2188285 -10.07570628 -2.96789097 0 0 Z " fill="#000000" transform="translate(446,147)"/>
<path d="M0 0 C4.63365168 3.12192282 6.27929771 7.22857121 8.6875 12.16796875 C9.21230957 13.17859375 9.73711914 14.18921875 10.27783203 15.23046875 C13.08320207 20.68920604 15.57243409 26.13947208 17.73828125 31.8828125 C24.37639211 48.52983707 32.19494191 55.09026127 48.11669922 62.09570312 C51.42417407 63.50858088 54.76108153 64.83211198 58.125 66.10546875 C58.19493164 65.55834229 58.26486328 65.01121582 58.33691406 64.44750977 C59.93674137 52.1311544 62.01963015 40.13286566 65.125 28.10546875 C68.54284442 28.69385716 71.35236622 30.17921123 74.39990234 31.78393555 C102.72098131 46.67744328 133.38986654 47.85058327 165.125 51.10546875 C165.125 154.72546875 165.125 258.34546875 165.125 365.10546875 C147.49681298 362.90194537 133.90056762 353.62392185 121.49072266 341.43603516 C120.39518523 340.36869891 119.2703793 339.33144097 118.13671875 338.3046875 C94.15250826 316.15220669 79.42962781 278.8362367 71.125 248.10546875 C71.125 247.11546875 71.125 246.12546875 71.125 245.10546875 C67.6841929 246.72352535 64.24808518 248.35135761 60.8125 249.98046875 C59.87470703 250.42132813 58.93691406 250.8621875 57.97070312 251.31640625 C55.89751878 252.30168198 53.8426008 253.32589407 51.80273438 254.37841797 C49.09360066 255.73440134 46.40374858 256.66579566 43.50976562 257.55517578 C36.57360388 259.9886256 31.08379314 262.74471648 27.27853394 269.27349854 C23.12585167 278.07604125 20.56324008 287.58501195 17.91345215 296.92089844 C16.59050005 301.5262809 15.1732937 306.10334363 13.76334953 310.68269157 C12.66724242 314.24541345 11.58724336 317.81007108 10.55838013 321.39285278 C5.71980715 338.01734742 5.71980715 338.01734742 0.103302 341.27981567 C-3.53892754 342.79991626 -7.0243302 342.86265928 -10.875 342.10546875 C-14.80000436 339.79707101 -17.42588018 337.45282822 -18.875 333.10546875 C-19.20505882 327.82796074 -18.33832178 323.47598187 -16.65942383 318.52124023 C-16.42361603 317.79833801 -16.18780823 317.07543579 -15.94485474 316.33062744 C-15.16788306 313.95894756 -14.37567509 311.59271078 -13.58203125 309.2265625 C-13.03297746 307.56959653 -12.48445784 305.91245346 -11.93644714 304.25514221 C-10.78746572 300.78889355 -9.6306563 297.32538002 -8.46850586 293.86352539 C-6.98389524 289.43836888 -5.52112744 285.00634443 -4.06444263 280.57192898 C-2.93726088 277.14997872 -1.79744154 273.73233932 -0.65393639 270.31581306 C-0.1096082 268.68379865 0.4305808 267.05039737 0.96645164 265.41558647 C1.71884593 263.12592211 2.48839632 260.84272068 3.26245117 258.56030273 C3.47824326 257.89156631 3.69403534 257.2228299 3.91636658 256.53382874 C6.28809223 249.66418092 9.88321882 245.27296218 16.46606445 242.03759766 C17.5067659 241.51751129 18.54746735 240.99742493 19.6197052 240.46157837 C21.28715034 239.65495255 21.28715034 239.65495255 22.98828125 238.83203125 C24.70896065 237.97912003 24.70896065 237.97912003 26.46440125 237.10897827 C29.49599873 235.60939518 32.5330534 234.12224063 35.57354736 232.64086914 C38.68237123 231.12244297 41.78320058 229.58787053 44.88476562 228.0546875 C50.95762649 225.05676597 57.03820557 222.07498932 63.125 219.10546875 C62.9930423 218.24996429 62.86108459 217.39445984 62.72512817 216.51303101 C61.4529608 208.25642958 60.2039102 199.99731876 59 191.73046875 C58.81824219 190.51230469 58.63648438 189.29414063 58.44921875 188.0390625 C58.19205078 186.26595703 58.19205078 186.26595703 57.9296875 184.45703125 C57.77483887 183.40338379 57.61999023 182.34973633 57.46044922 181.26416016 C57.10265162 177.89502962 57.125 174.49354486 57.125 171.10546875 C38.315 171.10546875 19.505 171.10546875 0.125 171.10546875 C-0.535 172.75546875 -1.195 174.40546875 -1.875 176.10546875 C-2.72149634 177.52556112 -3.61277678 178.91971143 -4.54199219 180.28710938 C-5.07725525 181.07984253 -5.61251831 181.87257568 -6.16400146 182.68933105 C-6.74409973 183.53821899 -7.324198 184.38710693 -7.921875 185.26171875 C-8.83335297 186.60804382 -8.83335297 186.60804382 -9.76324463 187.98156738 C-11.71273427 190.85923434 -13.66862446 193.73247984 -15.625 196.60546875 C-17.52889615 199.41005984 -19.43143525 202.21556557 -21.33337402 205.02148438 C-22.60142643 206.89103316 -23.87104171 208.75952284 -25.14221191 210.62695312 C-28.39392124 215.41050405 -31.61166966 220.21241143 -34.77539062 225.0546875 C-35.40398987 226.01282349 -36.03258911 226.97095947 -36.68023682 227.95812988 C-37.8716335 229.77801 -39.05640985 231.60224787 -40.2333374 233.43151855 C-43.79379543 238.85989141 -46.72144392 243.22948095 -53.25 245.04296875 C-57.60186415 245.11800089 -60.08824671 244.21731193 -63.875 242.10546875 C-66.83819429 238.94472817 -67.7687396 236.18547119 -68.1940918 231.86230469 C-67.81351898 227.38162027 -66.22623146 224.62167822 -63.76953125 220.99609375 C-63.32607864 220.31516663 -62.88262604 219.6342395 -62.42573547 218.93267822 C-60.92679318 216.64449341 -59.40283714 214.37444928 -57.875 212.10546875 C-56.76336664 210.43824603 -55.65188009 208.77092541 -54.54052734 207.10351562 C-50.90562204 201.67086379 -47.23599639 196.26207013 -43.5625 190.85546875 C-41.08489933 187.20600802 -38.610046 183.55470175 -36.13671875 179.90234375 C-35.53246063 179.01276978 -34.92820251 178.1231958 -34.30563354 177.20666504 C-31.21708328 172.64275206 -28.18575373 168.05202086 -25.23681641 163.39648438 C-24.36135918 162.02015839 -24.36135918 162.02015839 -23.46821594 160.61602783 C-22.36551693 158.87472916 -21.27199289 157.12757363 -20.18937683 155.37371826 C-19.69480484 154.59329163 -19.20023285 153.81286499 -18.69067383 153.00878906 C-18.26571121 152.32504211 -17.8407486 151.64129517 -17.40290833 150.93682861 C-14.64105173 147.62645113 -12.04833984 146.24171385 -7.76811218 145.7447052 C-6.60673233 145.75136703 -5.44535248 145.75802887 -4.2487793 145.76489258 C-3.60431351 145.7644545 -2.95984772 145.76401642 -2.29585266 145.76356506 C-0.17999254 145.76564385 1.93506072 145.78893006 4.05078125 145.8125 C5.52336698 145.81809923 6.99595831 145.82236779 8.46855164 145.82536316 C12.33366479 145.83678627 16.19843668 145.86623119 20.06341553 145.8994751 C24.01163111 145.93023092 27.95990213 145.94388024 31.90820312 145.95898438 C39.64729055 145.99110371 47.38609735 146.04226888 55.125 146.10546875 C55.05435333 145.45397354 54.98370667 144.80247833 54.91091919 144.13124084 C54.41699905 139.42254823 53.99794364 134.77841992 53.9921875 130.0390625 C53.99025391 128.98380371 53.98832031 127.92854492 53.98632812 126.84130859 C53.99083984 125.75285645 53.99535156 124.6644043 54 123.54296875 C54.00193359 122.41068848 54.00386719 121.2784082 54.00585938 120.11181641 C54.05200225 111.08191233 54.42295095 102.10674055 55.125 93.10546875 C54.31490479 92.86086914 53.50480957 92.61626953 52.67016602 92.36425781 C48.41499 90.8533641 44.44906959 88.95819523 40.40234375 86.96484375 C39.16769127 86.35784637 39.16769127 86.35784637 37.90809631 85.73858643 C36.17481119 84.88353869 34.44268854 84.02613088 32.71166992 83.16650391 C30.07371549 81.86101913 27.42679118 80.57506558 24.77929688 79.2890625 C23.0905537 78.45301791 21.40238278 77.61581622 19.71484375 76.77734375 C18.92826889 76.39898376 18.14169403 76.02062378 17.33128357 75.63079834 C8.08843666 70.97241405 4.67554095 63.8399169 0.16796875 54.86328125 C-0.37985764 53.78094208 -0.92768402 52.69860291 -1.49211121 51.58346558 C-2.64339469 49.30108629 -3.79039182 47.01654041 -4.93334961 44.72998047 C-6.68240663 41.24062997 -8.4566614 37.76488321 -10.23242188 34.2890625 C-11.35052564 32.06458918 -12.46711372 29.83935323 -13.58203125 27.61328125 C-14.11319046 26.5797049 -14.64434967 25.54612854 -15.19160461 24.48123169 C-18.04234343 18.70732611 -19.68259977 14.56174763 -18.875 8.10546875 C-14.71681464 -0.05689511 -8.8538003 -2.75478297 0 0 Z " fill="#000000" transform="translate(79.875,146.89453125)"/>
<path d="M0 0 C4.2704168 1.45834929 8.20427772 3.44718347 12.2109375 5.51171875 C13.34149567 6.07695755 14.47205383 6.64219635 15.63687134 7.2245636 C18.0138138 8.41837595 20.38536563 9.61896592 22.75146484 10.83374023 C25.77338683 12.38450365 28.80874868 13.90640649 31.84972191 15.41940594 C34.76828084 16.87486849 37.67683151 18.34997496 40.5859375 19.82421875 C41.67135834 20.36713058 42.75677917 20.91004242 43.87509155 21.46940613 C44.88359161 21.98956802 45.89209167 22.50972992 46.93115234 23.0456543 C48.25824722 23.72183052 48.25824722 23.72183052 49.6121521 24.41166687 C54.71419462 27.80541031 57.13274134 32.88484234 59.6796875 38.28515625 C60.01493439 38.98209091 60.35018127 39.67902557 60.69558716 40.39707947 C61.76148568 42.61602672 62.81851942 44.83905563 63.875 47.0625 C64.92313173 49.2534975 65.97309628 51.44360964 67.02325439 53.63363647 C67.70660278 55.05906829 68.38918919 56.48486565 69.07098389 57.91104126 C71.97503921 63.97756435 74.96352748 69.99852685 78 76 C79.37309326 75.65424927 79.37309326 75.65424927 80.77392578 75.30151367 C95.19608054 71.78644804 111.16628871 71.38289601 125.6953125 74.5625 C128.17964332 75.03410178 130.47690102 75.02928364 133 75 C133.44802979 74.07364746 133.89605957 73.14729492 134.35766602 72.19287109 C136.05465926 68.68477401 137.752873 65.17726882 139.45141602 61.66992188 C140.179928 60.16519486 140.90812911 58.66031728 141.63598633 57.15527344 C142.16131958 56.06907715 142.16131958 56.06907715 142.69726562 54.9609375 C143.2216774 53.87634247 143.2216774 53.87634247 143.75668335 52.76983643 C144.46446749 51.3112202 145.17544036 49.85414707 145.88955688 48.39862061 C147.58463199 44.94313121 149.24376016 41.4826527 150.80810547 37.96582031 C151.09902573 37.33342438 151.38994598 36.70102844 151.68968201 36.04946899 C152.46924648 34.35299288 153.22756967 32.64680026 153.98413086 30.93994141 C156.70667978 26.96937896 159.8104598 25.24466071 164 23 C164.79810593 22.5659082 165.59621185 22.13181641 166.41850281 21.68457031 C172.13468976 18.63242151 177.92520904 15.72055532 183.70751953 12.79614258 C185.81995811 11.72331555 187.92806231 10.64191111 190.03173828 9.55200195 C193.09227474 7.96679979 196.16526523 6.40857816 199.2421875 4.85546875 C200.17167206 4.3680571 201.10115662 3.88064545 202.05880737 3.37846375 C208.01751603 0.41809752 213.31473981 -1.19441633 220 0 C223.39023546 1.70690794 225.43261986 4.08725804 227.4375 7.3125 C228.4349501 12.07809493 228.13716218 16.12584655 225.58886719 20.32568359 C221.90632037 24.12977807 217.70278146 25.74848625 212.8984375 27.8515625 C210.85938554 28.79408588 208.82166599 29.73949615 206.78515625 30.6875 C203.5974053 32.15869462 200.40626533 33.61136722 197.18798828 35.01464844 C183.33093026 41.09655992 174.66215676 46.24919585 168.72998047 60.54052734 C168.2847403 61.69594025 168.2847403 61.69594025 167.83050537 62.87469482 C166.74759209 65.64592459 165.41688062 68.26307984 164.0546875 70.90625 C163.32404614 72.43555796 162.59719412 73.96668487 161.875 75.5 C161.49085938 76.29535156 161.10671875 77.09070313 160.7109375 77.91015625 C160.35 78.67199219 159.9890625 79.43382813 159.6171875 80.21875 C159.30378418 80.87810547 158.99038086 81.53746094 158.66748047 82.21679688 C157.82471935 84.15093098 157.82471935 84.15093098 158 87 C159.66245498 88.38607745 159.66245498 88.38607745 161.875 89.625 C167.48416757 93.18567847 172.18090132 97.44820473 177 102 C177.74121094 102.66515625 178.48242188 103.3303125 179.24609375 104.015625 C191.47911467 115.44183349 203.84202279 133.60843668 208 150 C203.72203482 158.55593035 191.43262686 162.58973174 182.8671875 165.55078125 C135.03231755 180.67519057 59.1274206 183.63451817 13.5 159.9375 C8.56069022 156.94729978 5.21685509 153.82528264 2 149 C2.47216797 147.10571289 2.47216797 147.10571289 3.4921875 144.97265625 C3.86351807 144.18624756 4.23484863 143.39983887 4.61743164 142.58959961 C5.0324292 141.75565674 5.44742676 140.92171387 5.875 140.0625 C6.29193115 139.2072876 6.7088623 138.3520752 7.13842773 137.47094727 C10.57465158 130.56265806 14.39062685 124.20136548 19 118 C19.90105469 116.76636719 19.90105469 116.76636719 20.8203125 115.5078125 C29.16630488 104.57770533 39.55677506 93.22161247 52 87 C50.00095063 73.72933812 40.47992106 51.2496683 29.62890625 42.9609375 C25.91172767 40.80135123 21.9732519 39.3985298 17.89941406 38.05859375 C12.38618055 36.04567858 7.19578749 33.28778974 1.96548462 30.64053345 C0.10075855 29.70666026 -1.77556692 28.80174353 -3.6574707 27.90307617 C-4.81077881 27.34080322 -5.96408691 26.77853027 -7.15234375 26.19921875 C-8.18351318 25.70252686 -9.21468262 25.20583496 -10.27709961 24.6940918 C-13.81015306 22.49595158 -16.31515454 19.94226663 -17.71484375 15.97265625 C-18.28060388 11.11902986 -17.85019746 8.18028961 -15 4 C-10.7207091 -0.92766831 -6.11503443 -0.83926634 0 0 Z " fill="#000000" transform="translate(152,0)"/>
</svg>
