<?xml version="1.0" encoding="UTF-8"?>
<svg version="1.1" xmlns="http://www.w3.org/2000/svg" width="512" height="512">
<path d="M0 0 C0.33 0 0.66 0 1 0 C-0.34119055 26.82381103 -24.88247973 50.92413992 -41.96484375 69.75390625 C-47.51419085 75.8784256 -52.88148964 82.16407671 -58.24536133 88.45092773 C-60.81418822 91.46066971 -63.39516298 94.45646286 -66.01953125 97.41796875 C-85.11312458 119.07590694 -105.12813495 146.4586117 -104.28515625 176.5859375 C-102.95819502 192.47311715 -98.03282482 206.22549971 -90 220 C-87.12722923 220 -85.7232944 218.61025902 -83.375 217 C-82.55773437 216.443125 -81.74046875 215.88625 -80.8984375 215.3125 C-80.27195313 214.879375 -79.64546875 214.44625 -79 214 C-80.16352949 210.08630988 -81.68847447 206.48966813 -83.4375 202.8125 C-85.96795496 197.33357983 -87.64164706 191.87036444 -89 186 C-89.226875 185.030625 -89.45375 184.06125 -89.6875 183.0625 C-92.49862881 155.51343763 -77.86044448 134.09251147 -61.1875 113.62109375 C-54.05636639 105.07646758 -46.78793037 96.67643305 -39.2578125 88.48046875 C-36.59905229 85.55951247 -34.02385708 82.57364927 -31.47265625 79.55859375 C-30 78 -30 78 -27 76 C-28.29324982 79.4907356 -29.81326137 82.46444826 -31.87109375 85.5625 C-32.44021484 86.43100586 -33.00933594 87.29951172 -33.59570312 88.19433594 C-34.20349609 89.12020508 -34.81128906 90.04607422 -35.4375 91 C-51.44234011 115.84962017 -66.0584981 142.7411792 -60.31640625 173.32421875 C-58.43300712 180.80311073 -55.59564681 187.59836421 -52.171875 194.48828125 C-51 197 -51 197 -51 199 C-47.04 197.02 -43.08 195.04 -39 193 C-40.00994594 187.95027028 -41.67722817 183.90548738 -43.74609375 179.23046875 C-50.46424095 161.92234496 -47.5114674 143.99942955 -40.21191406 127.43261719 C-33.62497274 113.0691791 -25.05814232 99.74177668 -16.4453125 86.52734375 C-6.29422796 70.92188208 3.86352826 54.67135161 10 37 C12.65171892 39.65171892 12.54105675 41.41949582 13.03515625 45.1171875 C13.20466797 46.365 13.37417969 47.6128125 13.54882812 48.8984375 C13.63334229 49.55295898 13.71785645 50.20748047 13.80493164 50.88183594 C14.05717995 52.83383137 14.32239768 54.78413685 14.58789062 56.734375 C16.13400788 68.3213687 17.14997047 79.81466394 17.23828125 91.51171875 C17.246353 92.56422318 17.25442474 93.6167276 17.26274109 94.7011261 C17.27646256 96.91198132 17.28723706 99.12285665 17.29516602 101.33374023 C17.30667607 103.56069294 17.32711227 105.78761827 17.35668945 108.0144043 C17.84411947 144.86574741 4.19817081 173.47149098 -21 200 C-21.48919922 200.52174805 -21.97839844 201.04349609 -22.48242188 201.58105469 C-39.1297288 219.23698057 -66.17796471 243.83136371 -91.79296875 245.203125 C-104.42024772 245.43438332 -112.30123089 244.55485389 -121.7734375 235.44921875 C-133.97563336 222.0268033 -135.35603969 202.24171657 -135.3125 185 C-135.32861328 183.72382813 -135.34472656 182.44765625 -135.36132812 181.1328125 C-135.36742061 169.21591456 -133.06056003 159.16829903 -127.8125 148.5 C-127.41667725 147.68321777 -127.02085449 146.86643555 -126.61303711 146.02490234 C-123.27640005 139.2823232 -119.47824641 133.05191057 -115 127 C-114.61730957 126.47744629 -114.23461914 125.95489258 -113.84033203 125.41650391 C-108.75913303 118.508449 -103.37555265 112.00548998 -97.51953125 105.73046875 C-95.61533589 103.66685239 -93.78077152 101.58183456 -91.95556641 99.45068359 C-87.57779739 94.44167542 -82.89919371 89.75554402 -78.19140625 85.05859375 C-77.26585434 84.13208511 -76.34030243 83.20557648 -75.38670349 82.25099182 C-73.43935145 80.30217639 -71.49023087 78.35515263 -69.53979492 76.40942383 C-67.06103605 73.93636139 -64.58679569 71.45883467 -62.1138773 68.97993374 C-59.72549855 66.58703799 -57.3332792 64.19799682 -54.94140625 61.80859375 C-54.0640834 60.92924667 -53.18676056 60.0498996 -52.28285217 59.14390564 C-47.87308676 54.75073374 -43.39481672 50.51766919 -38.67506409 46.45942688 C-36.71268245 44.7496699 -34.88979154 42.94893755 -33.10546875 41.0546875 C-32.14568115 40.03834229 -32.14568115 40.03834229 -31.16650391 39.00146484 C-30.51343262 38.29973145 -29.86036133 37.59799805 -29.1875 36.875 C-28.49317871 36.13072754 -27.79885742 35.38645508 -27.08349609 34.61962891 C-17.71953916 24.52353748 -9.33801839 14.42996494 -1.8984375 2.82421875 C-1.27195313 1.89222656 -0.64546875 0.96023437 0 0 Z " fill="#000000" transform="translate(191,211)"/>
<path d="M0 0 C2.86605459 2.59819902 4.80818365 5.59671684 6.9375 8.8125 C14.21919295 19.52060644 22.94630236 28.97209006 31.75 38.4375 C32.33209229 39.06817383 32.91418457 39.69884766 33.51391602 40.34863281 C37.91896898 45.02699836 42.55662868 49.41766294 47.26171875 53.7890625 C56.20638724 62.10809695 64.85903208 70.7072502 73.48510742 79.35473633 C76.08722821 81.96227975 78.69473753 84.56435064 81.30273438 87.16601562 C82.98469617 88.84863735 84.66634821 90.53156878 86.34765625 92.21484375 C87.11441177 92.97957504 87.8811673 93.74430634 88.67115784 94.5322113 C104.54620032 110.47593084 119.1043823 128.36262552 128.9375 148.6875 C129.30319092 149.43483398 129.66888184 150.18216797 130.0456543 150.95214844 C135.18765814 162.01761567 136.50838358 172.62520123 136.375 184.75 C136.37067963 185.40852966 136.36635925 186.06705933 136.36190796 186.74554443 C136.22940709 203.97379344 134.59381062 222.89255008 122.06640625 236.02734375 C113.90386215 243.85037128 106.73547101 245.55548264 95.57446289 245.48608398 C65.74339253 244.37014363 36.31180953 215.58451333 16.98779297 195.17871094 C-6.49485724 169.44066494 -16.82019006 140.12670147 -16.4375 105.6875 C-16.43167908 104.58693268 -16.42585815 103.48636536 -16.41986084 102.35244751 C-16.32895014 85.39236293 -15.55163471 68.78452813 -13 52 C-12.84241211 50.83291504 -12.68482422 49.66583008 -12.52246094 48.46337891 C-12.3577832 47.28565918 -12.19310547 46.10793945 -12.0234375 44.89453125 C-11.87567871 43.8166333 -11.72791992 42.73873535 -11.57568359 41.62817383 C-11 39 -11 39 -9 37 C-8.61070312 37.93457031 -8.22140625 38.86914062 -7.8203125 39.83203125 C0.36235774 59.18175742 10.77780417 76.62384409 22.20849609 94.22558594 C25.97332271 100.05598791 29.56993235 105.96706142 33 112 C33.41475586 112.72316406 33.82951172 113.44632812 34.25683594 114.19140625 C44.61007718 132.41797937 52.19707225 151.27818351 47.0078125 172.54296875 C45.08877443 179.3482385 42.46856023 185.83367071 39 192 C40.60194071 192.98280415 42.20663742 193.96111717 43.8125 194.9375 C44.70582031 195.48277344 45.59914063 196.02804687 46.51953125 196.58984375 C49.00703562 198.11009578 49.00703562 198.11009578 52 199 C52.27972656 198.12601563 52.55945313 197.25203125 52.84765625 196.3515625 C53.90656152 193.27176345 55.12138071 190.35164363 56.4375 187.375 C64.86155928 166.9379331 63.99573292 146.52117628 55.72436523 126.18603516 C49.42740255 111.36943944 41.05539773 97.65935893 32.02685547 84.37207031 C31.21885498 83.16695801 31.21885498 83.16695801 30.39453125 81.9375 C29.90831299 81.22464844 29.42209473 80.51179688 28.92114258 79.77734375 C28.61716553 79.19082031 28.31318848 78.60429687 28 78 C28.33 77.34 28.66 76.68 29 76 C34.25852767 81.13560105 39.22765386 86.41241622 44 92 C44.91763167 93.06539459 45.83563021 94.13047325 46.75390625 95.1953125 C49.35028902 98.20912151 51.93434007 101.23323844 54.51416016 104.26123047 C55.86097845 105.83731327 57.21707596 107.40545494 58.57421875 108.97265625 C75.29533457 128.54793999 92.82226937 151.96414894 91 179 C89.49002412 190.03352454 86.21615457 199.73451826 81.1875 209.625 C79.8509288 211.85558728 79.8509288 211.85558728 80 214 C82.24645535 215.81709175 82.24645535 215.81709175 85 217.625 C85.928125 218.25664062 86.85625 218.88828125 87.8125 219.5390625 C88.534375 220.02117187 89.25625 220.50328125 90 221 C101.48120116 204.11588065 107.39815799 183.39821543 104.421875 163.046875 C100.1531513 140.82687856 87.32045391 122.0391867 73 105 C72.16984375 104.00871094 71.3396875 103.01742187 70.484375 101.99609375 C68.15686895 99.22746225 65.81415322 96.47209589 63.46630859 93.72070312 C61.99057585 91.98894083 60.5203988 90.25257806 59.05078125 88.515625 C54.08703006 82.66697109 49.0492449 76.91871106 43.8125 71.3125 C39.46770773 66.65363475 35.31611629 61.89678446 31.3359375 56.91796875 C29.63451153 54.79260889 27.91438227 52.69741284 26.1640625 50.61328125 C14.32447521 36.38158665 0.95551013 19.11020252 0 0 Z " fill="#000000" transform="translate(320,211)"/>
<path d="M0 0 C5.0351671 -0.19818991 10.06805406 -0.34311223 15.10620117 -0.43945312 C16.81851754 -0.47961717 18.53056064 -0.53416398 20.24194336 -0.60351562 C34.53275727 -1.168009 34.53275727 -1.168009 38.15478516 1.71533203 C39.41375667 3.78057401 40.16607915 5.74021975 41 8 C46.09605066 13.65678401 51.98221336 15.08356511 59.25 16.25 C66.80310175 17.64358494 72.77308466 19.88451377 77.6171875 26.0625 C82.3042216 33.26517387 83.35898302 40.49431503 82 49 C81.06482674 51.88372454 79.81662665 54.57529621 78.51171875 57.30859375 C78.15434631 58.08376343 77.79697388 58.85893311 77.42877197 59.65759277 C76.67450833 61.29064801 75.91478192 62.92119019 75.14987183 64.54928589 C74.03562225 66.92407853 72.93861441 69.30596915 71.84790039 71.69165039 C69.66272477 76.46767298 67.45831225 81.23463852 65.25 86 C63.66760598 89.4151967 62.08549449 92.83052381 60.50390625 96.24609375 C59.92380547 97.49839027 59.92380547 97.49839027 59.33198547 98.77598572 C56.97473629 103.87147801 54.64559149 108.97868074 52.33984375 114.09765625 C51.53015137 115.88526367 51.53015137 115.88526367 50.70410156 117.70898438 C49.72579175 119.87222706 48.75454843 122.03868613 47.79199219 124.20898438 C44.41127682 131.65511696 41.19905607 137.15772201 33.875 141.3125 C33.02679688 141.80363281 32.17859375 142.29476562 31.3046875 142.80078125 C24.35813586 146.41534286 14.33368805 146.36451135 6.8984375 144.0234375 C4.46296286 142.824095 2.24398392 141.52413166 0 140 C-0.9075 139.443125 -1.815 138.88625 -2.75 138.3125 C-9.50799241 131.36678558 -13.11990459 121.71858958 -17.00714111 112.96884155 C-18.62333005 109.3314887 -20.25972653 105.70323356 -21.89453125 102.07421875 C-22.23027161 101.32773575 -22.56601196 100.58125275 -22.91192627 99.81214905 C-27.15243837 90.40607959 -31.56675002 81.08141494 -35.98803711 71.75927734 C-49.19513832 43.84144955 -49.19513832 43.84144955 -45 32 C-41.37278395 24.54771975 -36.57595866 20.36709274 -29 17 C-25.64042334 16.29895931 -22.3169915 15.74692832 -18.921875 15.27148438 C-11.02200647 13.99755519 -6.61778241 10.15704321 -2 4 C-1.31077 2.67818904 -0.63865255 1.34697629 0 0 Z " fill="#000000" transform="translate(238,119)"/>
<path d="M0 0 C5.81333025 4.18559778 11.23608437 8.72155346 16.65063477 13.40112305 C21.10516358 17.24716476 25.63005512 20.99364105 30.19921875 24.703125 C34.00344275 27.82290702 37.75343296 31.00490829 41.49829102 34.19555664 C43.81543565 36.16667434 46.08266684 38.05571985 48.60794067 39.75782776 C51.65432478 42.61332462 51.801442 44.24672825 52.21826172 48.35522461 C52.3563324 49.60294647 52.49440308 50.85066833 52.63665771 52.13619995 C52.81651215 54.04878098 52.81651215 54.04878098 53 56 C53.19411469 57.74762131 53.19411469 57.74762131 53.39215088 59.5305481 C53.78953669 63.12365416 54.15255207 66.71890249 54.5078125 70.31640625 C54.63815887 71.61650131 54.76850525 72.91659637 54.90280151 74.25608826 C55.17521691 76.97596032 55.44558013 79.69602565 55.71435547 82.41625977 C56.05802601 85.89310111 56.40664178 89.36942603 56.75671577 92.84562778 C57.09289313 96.1898082 57.42521169 99.5343682 57.7578125 102.87890625 C57.88278107 104.12160782 58.00774963 105.36430939 58.13650513 106.64466858 C58.30700882 108.37818825 58.30700882 108.37818825 58.48095703 110.14672852 C58.58151398 111.15929214 58.68207092 112.17185577 58.78567505 113.21510315 C58.98645962 115.82405889 59.03975314 118.38472553 59 121 C59.60118652 121.15202881 60.20237305 121.30405762 60.82177734 121.46069336 C68.82315171 123.55763079 76.62862138 126.1300557 84.44677734 128.81616211 C86.65331584 129.57220203 88.86362452 130.31646115 91.07421875 131.06054688 C92.47940929 131.54095757 93.88436651 132.02205141 95.2890625 132.50390625 C95.94935455 132.72478409 96.60964661 132.94566193 97.28994751 133.17323303 C101.8855942 134.77118841 101.8855942 134.77118841 103 137 C102.53370875 138.66532591 102.0613187 140.32938256 101.546875 141.98046875 C100.65271523 145.28247303 100.35769718 148.60187681 100 152 C93.7154362 151.37730828 88.09496501 149.52431644 82.140625 147.47265625 C81.11443054 147.12367783 80.08823608 146.7746994 79.03094482 146.41514587 C76.87166143 145.67924324 74.71341333 144.9402966 72.55615234 144.19848633 C69.24976263 143.06241844 65.93965328 141.93775106 62.62890625 140.81445312 C60.52841598 140.09702679 58.42814762 139.37895032 56.328125 138.66015625 C55.33750061 138.32363541 54.34687622 137.98711456 53.32623291 137.64039612 C52.408078 137.32344284 51.4899231 137.00648956 50.54394531 136.67993164 C49.73677063 136.40315079 48.92959595 136.12636993 48.09796143 135.84120178 C46 135 46 135 43 133 C42.42370605 130.94616699 42.42370605 130.94616699 42.13867188 128.37304688 C42.02591919 127.40387329 41.9131665 126.43469971 41.79699707 125.43615723 C41.68867554 124.37441284 41.580354 123.31266846 41.46875 122.21875 C41.34528198 121.10963257 41.22181396 120.00051514 41.09460449 118.85778809 C40.3104666 111.60999476 39.6722393 104.35271871 39.08129883 97.08691406 C38.67813732 92.14137872 38.24726693 87.19838988 37.81445312 82.25537109 C37.60253094 79.72448048 37.4075656 77.1921198 37.22851562 74.65869141 C36.99049302 60.2501282 36.99049302 60.2501282 31.55664062 47.47851562 C28.8022006 45.21908729 26.17078178 43.60238936 23 42 C21.79101864 41.04965037 20.60782087 40.06436079 19.46875 39.03125 C9.46240951 30.49952811 -0.71199596 22.19023315 -11 14 C-8.93687686 10.33584124 -6.64127824 7.29451872 -3.8125 4.1875 C-3.09707031 3.39730469 -2.38164063 2.60710938 -1.64453125 1.79296875 C-1.10183594 1.20128906 -0.55914062 0.60960937 0 0 Z " fill="#000000" transform="translate(77,9)"/>
<path d="M0 0 C4.95258714 3.77339973 8.43679155 7.90789714 12 13 C8.29327487 16.80390519 4.42129169 20.31185382 0.375 23.75 C-0.54913696 24.5387854 -0.54913696 24.5387854 -1.49194336 25.34350586 C-6.00840399 29.18679239 -10.58147253 32.95586314 -15.1875 36.69140625 C-19.09025802 39.89492012 -22.93124844 43.17002003 -26.76196289 46.45922852 C-30.78474018 49.89237009 -30.78474018 49.89237009 -33 51 C-33.51068155 53.21433365 -33.51068155 53.21433365 -33.73022461 55.93334961 C-33.89566017 57.51913063 -33.89566017 57.51913063 -34.06443787 59.13694763 C-34.17594681 60.29702835 -34.28745575 61.45710907 -34.40234375 62.65234375 C-34.5255751 63.85443985 -34.64880646 65.05653595 -34.77577209 66.2950592 C-35.17180222 70.17504077 -35.55506962 74.05615652 -35.9375 77.9375 C-36.44352939 82.96776156 -36.95440099 87.99752842 -37.46484375 93.02734375 C-37.58951019 94.26584076 -37.71417664 95.50433777 -37.84262085 96.78036499 C-39.10099915 109.20175372 -40.52764955 121.60235945 -42 134 C-49.47185866 136.57201936 -56.94692645 139.1345359 -64.42431641 141.69042969 C-66.96860831 142.56059946 -69.5118318 143.4337942 -72.05419922 144.30957031 C-75.70607208 145.56628192 -79.36054529 146.81515099 -83.015625 148.0625 C-84.15429016 148.45622803 -85.29295532 148.84995605 -86.46612549 149.25561523 C-87.52692322 149.61598877 -88.58772095 149.9763623 -89.68066406 150.34765625 C-90.61332092 150.66742432 -91.54597778 150.98719238 -92.50689697 151.31665039 C-95 152 -95 152 -99 152 C-99.13277344 151.18015625 -99.26554687 150.3603125 -99.40234375 149.515625 C-99.57894531 148.43796875 -99.75554687 147.3603125 -99.9375 146.25 C-100.11152344 145.18265625 -100.28554688 144.1153125 -100.46484375 143.015625 C-100.88753057 140.63376932 -101.39760016 138.33898839 -102 136 C-94.01134805 132.65602601 -85.87259834 129.802862 -77.68359375 126.99853516 C-75.47510662 126.24146656 -73.26876415 125.47836317 -71.0625 124.71484375 C-69.65637386 124.23141043 -68.25012826 123.74832438 -66.84375 123.265625 C-66.18548218 123.03756165 -65.52721436 122.80949829 -64.84899902 122.57452393 C-60.22960006 121 -60.22960006 121 -58 121 C-57.92875916 120.07021332 -57.92875916 120.07021332 -57.8560791 119.12164307 C-56.67005884 103.74033287 -55.34408819 88.37822306 -53.82275391 73.02636719 C-53.49332925 69.68228334 -53.17448682 66.3372783 -52.85546875 62.9921875 C-52.64387365 60.84368643 -52.43165876 58.69524629 -52.21875 56.546875 C-52.12597778 55.55741882 -52.03320557 54.56796265 -51.93762207 53.54852295 C-51.21443847 46.43275152 -50.5107561 41.87221626 -44.76196289 37.10766602 C-44.20114014 36.65963623 -43.64031738 36.21160645 -43.0625 35.75 C-42.47911865 35.27038818 -41.8957373 34.79077637 -41.29467773 34.29663086 C-39.53733198 32.85484712 -37.76987762 31.42635493 -36 30 C-34.18677706 28.52171963 -32.37422558 27.0426151 -30.5625 25.5625 C-29.67691406 24.84191406 -28.79132813 24.12132813 -27.87890625 23.37890625 C-23.94639726 20.12938389 -20.08655326 16.79825872 -16.22241211 13.46801758 C-10.8913172 8.88320206 -5.46895455 4.41980817 0 0 Z " fill="#000000" transform="translate(434,9)"/>
<path d="M0 0 C0.81926971 0.00359528 1.63853943 0.00719055 2.4826355 0.01089478 C3.34109573 0.01074875 4.19955597 0.01060272 5.08403015 0.01045227 C7.93559249 0.0111517 10.78709036 0.01894547 13.63864136 0.02676392 C15.61019353 0.02862799 17.58174615 0.03005194 19.55329895 0.03105164 C24.75324778 0.03487765 29.95316886 0.04470865 35.15310669 0.05575562 C40.45492172 0.06596794 45.75674121 0.07054887 51.05856323 0.07559204 C61.46938274 0.08633084 71.88018162 0.10340826 82.29098511 0.12442017 C83.63100138 2.35107928 84.95669057 4.58438612 86.27536011 6.82363892 C86.84456177 7.76475525 86.84456177 7.76475525 87.42526245 8.72488403 C89.46186359 12.20920332 90.91726486 14.8595059 90.54098511 18.93692017 C89.29098511 23.12442017 89.29098511 23.12442017 85.29098511 32.12442017 C54.27098511 32.12442017 23.25098511 32.12442017 -8.70901489 32.12442017 C-14.70901489 17.12442017 -14.70901489 17.12442017 -13.58010864 12.19473267 C-12.44143677 10.16738892 -12.44143677 10.16738892 -11.14651489 8.24942017 C-10.74626099 7.56234985 -10.34600708 6.87527954 -9.93362427 6.16738892 C-6.76023074 0.79866621 -6.20151997 0.01149201 0 0 Z " fill="#000000" transform="translate(217.70901489257813,375.8755798339844)"/>
<path d="M0 0 C3.31805922 1.4474755 5.48448066 3.29230539 8.0625 5.8125 C17.39519206 14.18760314 28.66058073 17.36055043 41.13671875 16.87890625 C53.80856202 15.27214965 63.12261979 8.83809977 72 0 C72.99 0.495 72.99 0.495 74 1 C73.91435791 1.73822998 73.82871582 2.47645996 73.74047852 3.23706055 C73.34067397 6.71976035 72.95161203 10.20358993 72.5625 13.6875 C72.36043945 15.42676758 72.36043945 15.42676758 72.15429688 17.20117188 C70.94148649 28.17562686 70.52882856 38.8946002 70 50 C48.22 50 26.44 50 4 50 C3.71125 44.905625 3.4225 39.81125 3.125 34.5625 C2.44599372 22.98646489 1.64852229 11.48704359 0 0 Z " fill="#000000" transform="translate(219,262)"/>
<path d="M0 0 C3.61274628 0.12366618 7.22649821 0.17775142 10.84075928 0.23803711 C17.90857291 0.36601845 24.97127699 0.57670996 32.03607178 0.82397461 C32.03607178 6.10397461 32.03607178 11.38397461 32.03607178 16.82397461 C30.50796875 16.7966626 28.97986572 16.76935059 27.40545654 16.74121094 C21.70782396 16.65403829 16.01189004 16.63978509 10.31365967 16.64697266 C7.85291274 16.64001911 5.39213756 16.61358136 2.93182373 16.56689453 C-10.96472637 15.51911801 -10.96472637 15.51911801 -23.43902588 20.12426758 C-25.72166883 22.92008865 -27.3474478 25.60692456 -28.96392822 28.82397461 C-30.48907471 30.76855469 -30.48907471 30.76855469 -31.93267822 32.35522461 C-36.17492724 37.33070185 -40.39294795 42.31986299 -44.52642822 47.38647461 C-45.27150635 48.26045898 -46.01658447 49.13444336 -46.78424072 50.03491211 C-49.07055006 52.81241949 -49.07055006 52.81241949 -50.83111572 56.17553711 C-53.87243826 61.07608323 -56.11981376 64.15436633 -61.78863525 65.48901367 C-70.15389518 66.53482866 -81.13905055 67.54961207 -88.66705322 63.01928711 C-91.21259405 60.76265736 -93.01459828 58.60463644 -94.96392822 55.82397461 C-96.93293259 53.46375693 -98.94698537 51.14329207 -100.96392822 48.82397461 C-100.0113916 48.85128662 -99.05885498 48.87859863 -98.07745361 48.90673828 C-94.50412198 48.9943346 -90.93348504 49.0081425 -87.35919189 49.00097656 C-85.81991353 49.00790372 -84.28058483 49.03419187 -82.74200439 49.08105469 C-73.32674281 49.47723832 -73.32674281 49.47723832 -65.08258057 45.52368164 C-62.80069195 42.72878449 -60.86628567 39.88650702 -58.96392822 36.82397461 C-58.00080207 35.6251467 -57.01525821 34.44347965 -55.99517822 33.29272461 C-51.75292921 28.31724737 -47.53490849 23.32808623 -43.40142822 18.26147461 C-42.69228271 17.43808594 -41.98313721 16.61469727 -41.25250244 15.76635742 C-38.87999399 12.92425668 -38.87999399 12.92425668 -37.43731689 9.69433594 C-29.75172645 -3.77181625 -13.53269489 -0.51230779 0 0 Z " fill="#000000" transform="translate(471.96392822265625,199.176025390625)"/>
<path d="M0 0 C7.72847023 -0.34110083 15.45271894 -0.61525477 23.18667889 -0.77718258 C26.77975546 -0.85497532 30.36735414 -0.9600889 33.95727539 -1.1315918 C59.06157053 -2.29994178 59.06157053 -2.29994178 65.6953125 3.20800781 C68.59463325 6.24002916 70.84748681 9.51280238 72.91242981 13.15492249 C74.52507789 15.89080173 76.55787081 18.22394632 78.625 20.625 C79.32496094 21.48996094 80.02492188 22.35492188 80.74609375 23.24609375 C83.78238561 26.95594776 86.89180174 30.60227912 90.02001953 34.23486328 C90.66559814 34.99065674 90.66559814 34.99065674 91.32421875 35.76171875 C91.77313477 36.27009277 92.22205078 36.7784668 92.68457031 37.30224609 C94 39 94 39 95.07324219 41.13916016 C96.50104924 43.7394365 97.59702188 45.22973434 100 47 C105.62784936 48.15021458 111.15183984 48.07577955 116.875 48 C118.43752296 48.00809765 120.00003171 48.0197802 121.5625 48.03515625 C125.37608679 48.06490753 129.18660116 48.04569225 133 48 C126.7047304 55.43608419 126.7047304 55.43608419 123.3125 58.8125 C122.75175781 59.37582031 122.19101563 59.93914062 121.61328125 60.51953125 C115.24071594 66.3674786 105.70018315 65.26602097 97.51171875 65.0234375 C91.92358773 64.48760021 88.80999328 63.29918009 84.98535156 59.1887207 C82.92184247 56.52080524 81.02057255 53.79732748 79.23486328 50.93603516 C77.50362898 48.22178288 75.46039149 45.82306827 73.375 43.375 C72.67503906 42.51003906 71.97507812 41.64507812 71.25390625 40.75390625 C68.21761439 37.04405224 65.10819826 33.39772088 61.97998047 29.76513672 C61.54959473 29.26127441 61.11920898 28.75741211 60.67578125 28.23828125 C60.04803551 27.51764748 60.04803551 27.51764748 59.40760803 26.78245544 C58 25 58 25 56.84669495 22.96891785 C54.82911616 19.60917135 53.31727985 17.38375864 49.45558167 16.25874329 C46.29259434 15.97752215 43.21410341 15.94428384 40.0390625 16 C38.89335785 15.98912354 37.7476532 15.97824707 36.56723022 15.96704102 C32.91886042 15.94090901 29.27329479 15.96971372 25.625 16 C23.14712092 15.99190765 20.66925077 15.98023002 18.19140625 15.96484375 C12.12692284 15.93500747 6.06436667 15.95442705 0 16 C0 10.72 0 5.44 0 0 Z " fill="#000000" transform="translate(8,200)"/>
<path d="M0 0 C21.78 0 43.56 0 66 0 C66.495 6.93 66.495 6.93 67 14 C68.32 19.94 69.64 25.88 71 32 C45.92 32 20.84 32 -5 32 C-3.68 26.06 -2.36 20.12 -1 14 C-0.67 9.38 -0.34 4.76 0 0 Z " fill="#000000" transform="translate(223,328)"/>
<path d="M0 0 C25.74 0 51.48 0 78 0 C70.21037506 12.24083918 64.01865346 19.54862425 50.10498047 23.54418945 C40.11616141 25.7071592 27.84654698 25.23339684 19 20 C17.82050781 19.32904297 17.82050781 19.32904297 16.6171875 18.64453125 C8.61561915 13.7194735 4.65106595 8.13936541 0 0 Z " fill="#000000" transform="translate(217,424)"/>
<path d="M0 0 C1.75129657 1.10210905 3.50098464 2.20677432 5.25 3.3125 C6.22453125 3.92738281 7.1990625 4.54226563 8.203125 5.17578125 C10.54733713 6.70475759 12.78784032 8.28820977 15 10 C14.77183594 10.95261719 14.54367187 11.90523438 14.30859375 12.88671875 C13.87740234 14.76810547 13.87740234 14.76810547 13.4375 16.6875 C13.14746094 17.92886719 12.85742188 19.17023438 12.55859375 20.44921875 C11.64280764 26.27054443 13.31326131 29.99603929 15.94140625 35.17578125 C16.52470703 36.33271484 17.10800781 37.48964844 17.70898438 38.68164062 C18.32669206 39.89199387 18.94453227 41.1022795 19.5625 42.3125 C20.18479856 43.54203759 20.80654918 44.77185267 21.42773438 46.00195312 C22.94645512 49.00407552 24.4707102 52.00325153 26 55 C23.06459587 57.25073569 20.19209865 59.03885246 16.875 60.6875 C16.00617188 61.12449219 15.13734375 61.56148438 14.2421875 62.01171875 C12 63 12 63 10 63 C7.5029317 58.37916017 5.04754198 53.73924066 2.62695312 49.07788086 C1.79962152 47.49823893 0.96155771 45.92416658 0.11230469 44.35620117 C-7.8393549 29.64563093 -7.8393549 29.64563093 -6.6875 23 C-6.17350755 21.31774087 -5.61196861 19.64914476 -5 18 C-4.55994127 16.33212904 -4.13003352 14.66154266 -3.7109375 12.98828125 C-3.27075715 11.4282303 -2.82549897 9.86960256 -2.375 8.3125 C-2.14554687 7.50361328 -1.91609375 6.69472656 -1.6796875 5.86132812 C-1.12439578 3.90623854 -0.56288681 1.95291644 0 0 Z " fill="#000000" transform="translate(358,445)"/>
<path d="M0 0 C3.58236762 3.58236762 3.99410481 8.9967994 5.1875 13.8125 C5.47302734 14.90626953 5.75855469 16.00003906 6.05273438 17.12695312 C6.31763672 18.18462891 6.58253906 19.24230469 6.85546875 20.33203125 C7.09934326 21.29858643 7.34321777 22.2651416 7.59448242 23.26098633 C8.45606829 29.08045163 5.99751027 33.41448229 3.40234375 38.48828125 C3.04862198 39.19147995 2.69490021 39.89467865 2.33045959 40.6191864 C1.20509922 42.85318349 0.07144457 45.08284992 -1.0625 47.3125 C-1.8293282 48.83110152 -2.59561038 50.34997888 -3.36132812 51.86914062 C-5.23457649 55.58265171 -7.11527236 59.29230273 -9 63 C-12.97730348 61.70629427 -16.65233478 60.2866389 -20.375 58.375 C-21.68597656 57.70597656 -21.68597656 57.70597656 -23.0234375 57.0234375 C-23.67570313 56.68570313 -24.32796875 56.34796875 -25 56 C-24.01865599 53.91668911 -23.03619353 51.83392085 -22.05200195 49.75195312 C-21.22276917 47.99450881 -20.39710698 46.2353755 -19.57495117 44.47460938 C-17.48664656 40.02552258 -15.29983635 35.74229033 -12.8125 31.5 C-10.05295162 26.11275879 -11.49218075 21.60047151 -13 16 C-13.35156272 14.00312375 -13.6894897 12.00367025 -14 10 C-12.22970554 8.70759488 -10.45874502 7.41610207 -8.6875 6.125 C-7.70136719 5.40570313 -6.71523437 4.68640625 -5.69921875 3.9453125 C-3.82476885 2.5944065 -1.92247007 1.28164671 0 0 Z " fill="#000000" transform="translate(153,445)"/>
<path d="M0 0 C4.63535813 2.15213056 8.01334219 5.23793392 10 10 C10.47885139 13.8096424 10.37755228 17.54335203 10.25 21.375 C10.1675 24.88125 10.085 28.3875 10 32 C-0.56 32 -11.12 32 -22 32 C-22.0825 28.49375 -22.165 24.9875 -22.25 21.375 C-22.28641602 20.28106934 -22.32283203 19.18713867 -22.36035156 18.06005859 C-22.42918861 12.00794947 -22.03642982 8.59622666 -18 4 C-12.72867143 -1.00776214 -6.89190982 -0.92775709 0 0 Z " fill="#000000" transform="translate(262,72)"/>
<path d="M0 0 C17.13956361 -0.80341704 17.13956361 -0.80341704 23 4 C26.87898946 7.70126684 30.76542244 11.65016392 32 17 C32.02245885 19.33322525 32.02450273 21.66679532 32 24 C27.41687916 24.11605098 22.83413551 24.18720362 18.25 24.25 C16.94804687 24.28351563 15.64609375 24.31703125 14.3046875 24.3515625 C13.05429687 24.36445312 11.80390625 24.37734375 10.515625 24.390625 C9.36352539 24.41157227 8.21142578 24.43251953 7.02441406 24.45410156 C4 24 4 24 1.6171875 22.2734375 C-0.254849 19.64173401 -0.47246854 18.42627295 -0.390625 15.234375 C-0.37773437 14.34492187 -0.36484375 13.45546875 -0.3515625 12.5390625 C-0.31804687 11.61867188 -0.28453125 10.69828125 -0.25 9.75 C-0.23195313 8.81414062 -0.21390625 7.87828125 -0.1953125 6.9140625 C-0.14825673 4.60832985 -0.08253713 2.30469055 0 0 Z " fill="#000000" transform="translate(288,96)"/>
<path d="M0 0 C1.03930664 0.01353516 1.03930664 0.01353516 2.09960938 0.02734375 C3.79572395 0.05073843 5.49165871 0.08660359 7.1875 0.125 C7.30388036 3.37469769 7.37480581 6.6238583 7.4375 9.875 C7.47101563 10.79539062 7.50453125 11.71578125 7.5390625 12.6640625 C7.55195313 13.55351563 7.56484375 14.44296875 7.578125 15.359375 C7.59907227 16.17631836 7.62001953 16.99326172 7.64160156 17.83496094 C6.99812434 21.0800235 5.84997045 22.1958001 3.1875 24.125 C0.16308594 24.57910156 0.16308594 24.57910156 -3.328125 24.515625 C-4.57851562 24.50273438 -5.82890625 24.48984375 -7.1171875 24.4765625 C-9.07011719 24.42628906 -9.07011719 24.42628906 -11.0625 24.375 C-12.37992188 24.35695313 -13.69734375 24.33890625 -15.0546875 24.3203125 C-18.30802308 24.27316271 -21.55989625 24.20736044 -24.8125 24.125 C-25.02047374 16.91524371 -23.92371971 12.43757213 -18.94140625 7.1328125 C-12.85786434 1.58977431 -8.29027213 -0.20626514 0 0 Z " fill="#000000" transform="translate(216.8125,95.875)"/>
<path d="M0 0 C5.51745357 0.48398716 10.6555011 1.5684378 16 3 C15.35521919 9.34405026 14.03753669 15.3329118 12.4375 21.5 C12.20353516 22.4178125 11.96957031 23.335625 11.72851562 24.28125 C11.15666285 26.52197923 10.58041707 28.76147688 10 31 C8.68 30.34 7.36 29.68 6 29 C6 28.34 6 27.68 6 27 C5.484375 26.7525 4.96875 26.505 4.4375 26.25 C1.22815849 24.60418384 -1.87585664 22.8023904 -5 21 C-3.29787234 3.29787234 -3.29787234 3.29787234 0 0 Z " fill="#000000" transform="translate(272,38)"/>
<path d="M0 0 C0.67250524 2.58193977 1.33817901 5.16532071 2 7.75 C2.19078125 8.47960938 2.3815625 9.20921875 2.578125 9.9609375 C3.46515964 13.44571646 4 16.38123722 4 20 C2.35546875 21.44921875 2.35546875 21.44921875 0.1875 22.6875 C-0.52019531 23.10386719 -1.22789062 23.52023438 -1.95703125 23.94921875 C-4 25 -4 25 -7 26 C-8.20882096 28.00016466 -8.20882096 28.00016466 -9 30 C-9.66 30 -10.32 30 -11 30 C-12.00771516 26.08527676 -13.0048281 22.167929 -14 18.25 C-14.28617188 17.13882813 -14.57234375 16.02765625 -14.8671875 14.8828125 C-15.13789063 13.81289063 -15.40859375 12.74296875 -15.6875 11.640625 C-15.93886719 10.65610352 -16.19023437 9.67158203 -16.44921875 8.65722656 C-17 6 -17 6 -17 2 C-15.10787298 1.46585888 -13.21108364 0.94821671 -11.3125 0.4375 C-10.25675781 0.14746094 -9.20101562 -0.14257812 -8.11328125 -0.44140625 C-4.99304618 -1.00124767 -3.02306766 -0.84690764 0 0 Z " fill="#000000" transform="translate(241,39)"/>
</svg>
