<?xml version="1.0" encoding="UTF-8"?>
<svg version="1.1" xmlns="http://www.w3.org/2000/svg" width="512" height="512">
<path d="M0 0 C7.08392425 0 10.8060803 3.51682721 16 8 C17.655919 9.42845478 19.3130661 10.85535037 20.97412109 12.27783203 C22.09133937 13.23776737 23.20267608 14.20460368 24.30712891 15.17919922 C30.13558554 20.24567399 30.13558554 20.24567399 37.4140625 22.0390625 C38.14367187 21.90242188 38.87328125 21.76578125 39.625 21.625 C43.67476704 20.90030484 43.67476704 20.90030484 45.89794922 21.58178711 C49.78457303 22.3550492 52.78401759 20.02413337 56 18 C58.62776644 15.98711489 61.06624887 13.80411289 63.5 11.5625 C75.77273957 0.33617296 75.77273957 0.33617296 82 -0.3125 C82.66 -0.209375 83.32 -0.10625 84 0 C84.75 1.5625 84.75 1.5625 85 4 C81.70115665 11.42239754 76.30312793 15.33051084 69.875 20 C65.39314229 23.34831393 61.47624091 26.35421717 60.4375 32.125 C61.14440661 35.73807824 62.08994517 36.77916868 65 39 C66.98387708 40.03161608 68.98276656 41.03523618 71 42 C73 44 73 44 73.5 47.5625 C73.44421669 51.41852155 72.26199199 53.42177033 70 56.5 C66.69528572 61.03909928 66.17921085 63.43687356 67 69 C68.28322447 72.23394361 68.28322447 72.23394361 70 75 C70.28875 75.7425 70.5775 76.485 70.875 77.25 C72.47992696 79.74655305 74.21782093 80.09417426 77 81 C77.7425 81.37125 78.485 81.7425 79.25 82.125 C86.50743286 84.43418318 91.26599199 83.08006407 98 80 C103.80271272 77.34643516 107.66579289 76.06544485 114 77 C115.734375 78.33203125 115.734375 78.33203125 117 80 C117.08234965 84.28218195 116.21649487 87.16485878 113.625 90.5 C103.59784409 100.90200286 92.81236084 102.63398694 79 104 C86.05154791 111.42462663 86.05154791 111.42462663 95.0625 115.8125 C103.22080976 113.55594624 107.98934559 103.84019772 112.3125 97.1875 C124.01677225 79.67417484 137.53417522 68.64626262 157.05563354 60.91088867 C160.71653161 59.45401296 164.35028703 57.93243807 167.984375 56.41015625 C168.69138046 56.11436676 169.39838593 55.81857727 170.1268158 55.51382446 C183.30995649 49.9570251 194.67237278 42.99121403 205.72827148 33.90820312 C211.79855828 28.94012087 218.835497 23.18555689 227 23 C229.8125 23.75 229.8125 23.75 232 25 C233 28 233 28 232.0625 30.3125 C227.40632569 36.37963622 220.38177571 40.14531866 213.75 43.75 C212.97914063 44.17555176 212.20828125 44.60110352 211.4140625 45.03955078 C206.51031068 47.71907273 201.54155808 50.22347611 196.51171875 52.65649414 C179.37448567 60.97025097 164.44847953 71.64366358 150 84 C149.01902344 84.83789062 148.03804688 85.67578125 147.02734375 86.5390625 C141.90097645 91.03913153 137.37086642 95.77474611 133 101 C132.16726563 101.94488281 131.33453125 102.88976562 130.4765625 103.86328125 C123.54222336 111.77310824 117.56065168 120.07540453 112 129 C111.04867187 130.50626953 111.04867187 130.50626953 110.078125 132.04296875 C106.16735609 138.64471913 103.91542391 144.67333195 105.484375 152.37890625 C106.19154341 154.70077586 106.96632181 156.80203446 108 159 C108.40992188 160.13308594 108.81984375 161.26617187 109.2421875 162.43359375 C112.3433889 167.73886074 118.43504794 168.97265101 123.9777832 170.74560547 C125.91155132 171.36666616 127.82694959 172.02895513 129.74414062 172.69921875 C145.85219766 178.07134309 157.74925179 177.77793168 172.8125 170.3125 C178.00454178 167.67547642 183.04724466 164.83094057 188.0625 161.875 C195.13689699 157.78098317 202.32345394 154.74063205 210 152 C211.18464844 151.56945312 212.36929687 151.13890625 213.58984375 150.6953125 C230.03810174 145.13776888 247.40852676 142.49794056 264.5625 140.125 C265.94320679 139.92656494 265.94320679 139.92656494 267.35180664 139.72412109 C273.13689741 138.97961618 278.22686444 139.14428651 284 140 C285.1484375 143.6875 285.1484375 143.6875 283.8125 146.5 C275.91391737 153.52096233 263.86767247 153.87688253 253.8125 154.9375 C242.47053957 156.25904107 231.6825181 157.85611385 221 162 C219.792229 162.46599609 219.792229 162.46599609 218.56005859 162.94140625 C203.21756609 168.97854936 188.98283955 176.62223056 175 185.3125 C171.31086269 187.5991171 167.62802177 189.86706183 163.8125 191.9375 C163.11769531 192.31777344 162.42289062 192.69804687 161.70703125 193.08984375 C152.93858482 196.03796499 142.98929734 195.12127275 133.875 195.0625 C132.52343917 195.05747139 131.17187652 195.05291091 129.8203125 195.04882812 C126.54682735 195.03713711 123.27343814 195.02075029 120 195 C120.3717334 195.47195801 120.7434668 195.94391602 121.12646484 196.43017578 C127.63618629 204.70925757 134.10987873 212.99185979 140.17382812 221.60473633 C143.66758899 226.56246202 147.26407854 231.4396133 150.875 236.3125 C156.41719751 243.80361861 161.83739099 251.37084154 167.1875 259 C169.4311421 262.19903915 171.70058066 265.37835885 173.98266602 268.55004883 C178.81178755 275.26579307 183.47409524 282.07616626 188 289 C188.46776855 289.71397949 188.93553711 290.42795898 189.41748047 291.16357422 C192.74678216 296.24945288 196.05790456 301.34678593 199.35498047 306.45361328 C200.40127252 308.07320754 201.44955371 309.69151982 202.50048828 311.30810547 C226.36329237 348.06054349 252.96022428 390.90372869 263 434 C263.1959375 434.84046875 263.391875 435.6809375 263.59375 436.546875 C265.26288779 446.62589934 264.16887023 456.22812922 259.25 465.1875 C251.84490737 474.44386579 243.85233241 479.81742153 232 482 C208.91907698 484.40731074 193.00814991 474.29007201 175.7109375 460.36816406 C172.98213638 458.18605769 170.21869223 456.05225149 167.4375 453.9375 C166.50808594 453.22464844 165.57867187 452.51179688 164.62109375 451.77734375 C162.12925176 450.08764463 159.83307437 448.98875832 157 448 C155.79665304 458.58945329 162.5230252 468.06153562 167.5 476.9375 C179.24750238 497.9506932 179.24750238 497.9506932 178 509 C177.34 509.99 176.68 510.98 176 512 C173.375 512.1875 173.375 512.1875 171 512 C159.39975776 491.69270209 149.67328647 470.83986806 142.0793457 448.70166016 C139.05690275 440.18792176 135.13572275 436.3094322 127.125 432.125 C122.30448109 429.49148754 118.28288131 426.81936393 114.58203125 422.734375 C112.76662255 420.74414917 110.82964912 418.97232664 108.8125 417.1875 C108.17957031 416.62417969 107.54664063 416.06085938 106.89453125 415.48046875 C105.00950923 414.00743093 103.17262361 412.98755619 101 412 C100.5153125 413.11117188 100.030625 414.22234375 99.53125 415.3671875 C95.5959925 424.18160906 91.6137106 431.84529057 85 439 C84.48308594 439.63035156 83.96617187 440.26070313 83.43359375 440.91015625 C76.29191843 449.05417196 64.41188228 454.20554942 53.7019043 455.21704102 C42.93246735 455.75031156 33.02490788 455.3450348 23 451 C22.071875 450.59910156 21.14375 450.19820313 20.1875 449.78515625 C4.83707564 442.26257613 -6.72572379 427.61788797 -15 413 C-15 412.34 -15 411.68 -15 411 C-20.4653076 413.30775946 -23.88846825 416.57108262 -28 420.6875 C-33.88843253 426.41191549 -39.65901215 430.56101662 -46.9765625 434.25390625 C-54.59778356 438.65530911 -56.56232299 444.21801805 -59.3125 452.1875 C-60.09475164 454.36089368 -60.88125323 456.53276214 -61.671875 458.703125 C-62.06181641 459.77369141 -62.45175781 460.84425781 -62.85351562 461.94726562 C-65.27185101 468.38654706 -68.11861269 474.63049644 -71.01171875 480.86767578 C-72.02875666 483.06204563 -73.03032025 485.26308593 -74.03125 487.46484375 C-77.06548128 494.0906735 -80.21630181 500.65355616 -83.6875 507.0625 C-84.20699219 508.02285156 -84.72648437 508.98320312 -85.26171875 509.97265625 C-87 512 -87 512 -89.58203125 512.49609375 C-92 512 -92 512 -94 509 C-94.87616259 503.02436603 -93.66951299 497.7864529 -91.25 492.3125 C-90.9506958 491.60697998 -90.6513916 490.90145996 -90.34301758 490.17456055 C-87.06470547 482.70367564 -83.10406488 475.58282257 -79.08886719 468.48754883 C-75.15630438 461.51175037 -72.67278204 456.18044891 -73 448 C-78.99105 450.74617497 -83.6915854 453.92132573 -88.6875 458.1875 C-98.38766957 466.25245277 -108.28298022 474.06142142 -120 479 C-120.72832031 479.31839844 -121.45664063 479.63679688 -122.20703125 479.96484375 C-134.27646275 484.42662678 -149.44197714 483.25661492 -161 478 C-169.25732623 473.31715392 -175.94247914 466.0027003 -179 457 C-189.02568938 413.81792359 -145.82615453 354.84263142 -124.12451172 319.98779297 C-110.89691879 298.96007983 -97.27607779 278.17668986 -82.57226562 258.14892578 C-80.4261345 255.21565775 -78.30481825 252.2648131 -76.18261719 249.31420898 C-69.46263579 239.974488 -62.64831489 230.70595391 -55.81005859 221.45263672 C-53.918047 218.88895336 -52.030738 216.32186303 -50.14453125 213.75390625 C-49.51345459 212.89531006 -48.88237793 212.03671387 -48.23217773 211.15209961 C-47.02651766 209.51153336 -45.82156082 207.87044998 -44.61743164 206.22875977 C-44.07078857 205.48553467 -43.52414551 204.74230957 -42.9609375 203.9765625 C-42.48446777 203.32768066 -42.00799805 202.67879883 -41.51708984 202.01025391 C-39.7246146 199.63509441 -37.86739513 197.31653455 -36 195 C-36.82612793 195.00523682 -37.65225586 195.01047363 -38.50341797 195.01586914 C-41.61588272 195.03307591 -44.72832294 195.04552946 -47.84082031 195.05493164 C-49.83139675 195.06233777 -51.82195117 195.07505474 -53.8125 195.08789062 C-74.25517439 195.13951354 -74.25517439 195.13951354 -84.4375 189.375 C-85.26878418 188.92133057 -86.10006836 188.46766113 -86.95654297 188.00024414 C-92.16712096 185.12633718 -97.19080806 182.02793829 -102.171875 178.7734375 C-123.51822862 165.38774062 -146.47399903 157.52813677 -171.4543457 154.84594727 C-193.07534409 152.48858303 -193.07534409 152.48858303 -199.8125 146.5 C-201.17621069 143.62903013 -200.9070062 142.91229203 -200 140 C-193.22330325 138.9955353 -187.32685402 139.15282763 -180.5625 140.125 C-179.57822021 140.26115723 -178.59394043 140.39731445 -177.57983398 140.53759766 C-160.10057689 143.04776327 -142.64687521 145.98151435 -126 152 C-124.27136719 152.58974609 -124.27136719 152.58974609 -122.5078125 153.19140625 C-113.20487667 156.60112562 -104.9224536 161.34875302 -96.36938477 166.30371094 C-83.86326127 173.48934272 -71.67770462 179.14816929 -57 176 C-50.0320269 173.96432908 -43.2164655 171.44391759 -36.42895508 168.87744141 C-34 168 -34 168 -30.515625 167.08984375 C-26.11819551 165.18474619 -25.09655148 161.40444628 -23.20703125 157.2265625 C-20.86939843 150.97774467 -20.08686502 145.76438272 -22.3125 139.375 C-30.21970702 122.1935773 -42.53314525 107.11868519 -56 94 C-61 89 -61 89 -62.48828125 87.37109375 C-78.27650627 70.60266851 -98.99695769 59.3115996 -119.4296875 49.2824707 C-145.89378657 36.24488443 -145.89378657 36.24488443 -148.796875 29.015625 C-149 27 -149 27 -147 24 C-142.99611092 22.30138039 -139.633904 23.24084306 -135.7109375 24.66796875 C-128.60726632 28.15838932 -122.27736642 33.39400783 -116.1015625 38.3046875 C-105.29588457 46.80999702 -93.38513326 52.86187743 -80.6796875 58.0546875 C-80.0422612 58.31523422 -79.4048349 58.57578094 -78.74809265 58.84422302 C-75.58347152 60.13067803 -72.41207246 61.39122028 -69.22680664 62.6262207 C-51.61478165 69.60679451 -38.43971329 81.59592874 -28.1875 97.3125 C-21.29975832 108.66185928 -21.29975832 108.66185928 -11 116 C-4.86438287 113.75526202 0.1470585 109.27749389 5 105 C5 104.67 5 104.34 5 104 C3.33324219 103.87044922 3.33324219 103.87044922 1.6328125 103.73828125 C-11.88331734 102.53083221 -21.51081876 99.28676328 -31 89 C-32.85441795 85.85632005 -33.47054506 83.67025143 -33 80 C-30.72140357 77.1239667 -30.05459048 77.00805433 -26.1875 76.4375 C-21.60093529 76.54973242 -18.1443629 78.10479404 -14 80 C-8.49399349 82.49842446 -4.02974148 84.41195482 2 83 C4.23421858 82.09392176 6.28780424 81.08709572 8.37109375 79.875 C10 79 10 79 12 79 C12.4021875 78.195625 12.4021875 78.195625 12.8125 77.375 C13.68397106 75.63205788 14.6336552 73.92766043 15.625 72.25 C17.27376358 68.35292245 17.97150371 65.11947699 17 61 C15.66602299 58.72019567 15.66602299 58.72019567 14 56.5 C11.82661979 53.51095691 10.51315505 51.41691623 10.3125 47.6875 C11 44 11 44 13.125 41.6875 C16.024821 39.98543115 18.99374823 38.50312589 22 37 C23.50889469 33.98221063 23.50026276 32.37677363 23 29 C19.17002274 22.84149836 13.36015539 18.97444995 7.53125 14.875 C3.25941226 11.71067575 0.51933906 8.96606929 -0.875 3.6875 C-0.91625 2.800625 -0.9575 1.91375 -1 1 C-0.67 0.67 -0.34 0.34 0 0 Z " fill="#000000" transform="translate(214,0)"/>
</svg>
