<?xml version="1.0" encoding="UTF-8"?>
<svg version="1.1" xmlns="http://www.w3.org/2000/svg" width="512" height="512">
<path d="M0 0 C0.66 0 1.32 0 2 0 C2.70125 0.9075 3.4025 1.815 4.125 2.75 C7.08584055 6.50217631 10.66372266 8.17080112 15 10 C15.33 8.68 15.66 7.36 16 6 C16.721875 6.61875 17.44375 7.2375 18.1875 7.875 C20.81110665 10.07229398 20.81110665 10.07229398 23.5625 10.9375 C26.70647083 12.30794882 27.97944701 14.2827046 30 17 C30.66 17.33 31.32 17.66 32 18 C32.33 16.68 32.66 15.36 33 14 C34.77178053 14.956581 36.54239076 15.91532988 38.3125 16.875 C39.79169922 17.67550781 39.79169922 17.67550781 41.30078125 18.4921875 C44 20 44 20 47 22 C48.99319917 22.68673249 50.99422088 23.35092792 53 24 C55.13265427 24.85617507 57.25787911 25.73110451 59.375 26.625 C60.43460937 27.07101563 61.49421875 27.51703125 62.5859375 27.9765625 C63.38257813 28.31429687 64.17921875 28.65203125 65 29 C65.33 27.35 65.66 25.7 66 24 C66.64066406 24.2165625 67.28132813 24.433125 67.94140625 24.65625 C71.97737673 25.95545957 75.35526009 27 79.625 27 C83.37951479 27 85.80364266 27.87517363 89.203125 29.34375 C91.15083076 30.17152719 91.15083076 30.17152719 94 30 C94.66 28.68 95.32 27.36 96 26 C100.42295458 26.91509405 103.36302587 27.56685759 107.125 30.125 C109.83021043 32.28684946 109.83021043 32.28684946 112.875 31.875 C117.12343757 32.0449375 119.05183336 33.955282 122.265625 36.58984375 C123.95594102 38.06849611 123.95594102 38.06849611 126 39 C126.309375 38.38125 126.61875 37.7625 126.9375 37.125 C127.625 35.75 128.3125 34.375 129 33 C129.70253906 33.31195313 130.40507812 33.62390625 131.12890625 33.9453125 C134.11315959 35.04156883 136.78930598 35.47793048 139.9375 35.875 C145.08892352 36.6714164 147.9667369 37.77338952 152 41 C155.15025751 42.90924697 157.32122613 43.20437633 161 43 C161 43.99 161 44.98 161 46 C165.43093198 47.81301758 165.43093198 47.81301758 170 47 C175.62052977 46.33555753 179.56806664 46.80527925 184.30859375 49.91796875 C186.05383904 51.03444206 187.77525157 51.83330479 189.6875 52.625 C192.19289163 53.66497388 194.59666756 54.75026713 197 56 C197 55.34 197 54.68 197 54 C198.32 54 199.64 54 201 54 C202.2734375 55.390625 202.2734375 55.390625 203.375 57.25 C205.74373473 60.87234204 208.2957139 62.71437666 212 65 C214.375 67 214.375 67 216 69 C216 70.32 216 71.64 216 73 C224.79592862 78.08804302 233.73155958 77.81666785 243.625 78.125 C246.13204584 78.2134328 248.63863646 78.30722267 251.14511108 78.41061401 C252.6952323 78.47355156 254.24574975 78.52761652 255.79653931 78.57107544 C260.50614056 78.74973871 264.5153321 79.53704753 269 81 C269 88.16670606 267.45016359 91.91708367 262.42578125 97.06640625 C258.3435596 100.32035104 253.94268644 101.53193879 249 103 C246.70057286 103.8330496 244.40885712 104.6876666 242.125 105.5625 C241.07570313 105.95566406 240.02640625 106.34882813 238.9453125 106.75390625 C233.03283318 109.09488572 233.03283318 109.09488572 229.55859375 114.1796875 C229.18863281 115.39914063 228.81867188 116.61859375 228.4375 117.875 C227.24837225 121.75098041 226.38512074 124.52669419 223.81640625 127.68359375 C221.79072389 129.78561432 221.79072389 129.78561432 221.96875 132.10546875 C222.1440625 132.79253906 222.319375 133.47960937 222.5 134.1875 C223.27039932 138.96712024 222.21751837 141.83395958 220.2421875 146.1796875 C218.29248654 150.60636704 216.86471329 155.21219944 215.34375 159.80078125 C214 163 214 163 211.96875 165.23046875 C206.90443078 172.35467972 207.42952611 183.52775966 206.5625 192 C205.66942427 200.33671011 204.71816787 208.65053564 203.4375 216.9375 C203.322854 217.70513672 203.20820801 218.47277344 203.09008789 219.26367188 C201.96588127 226.25306153 201.96588127 226.25306153 200 229 C195.69299191 231.56322616 191.89093686 231.56149147 187 231 C183.55969709 230.11360069 180.33746818 228.86868567 177.0625 227.5 C176.18440674 227.1397876 175.30631348 226.7795752 174.40161133 226.40844727 C167.68936543 223.53960905 162.22697221 220.14367385 157 215 C156.37351562 214.42507813 155.74703125 213.85015625 155.1015625 213.2578125 C151.24269883 209.60116003 148.03639606 205.57134129 144.83203125 201.33984375 C142.29979759 198.10571163 139.56163373 195.07867383 136.796875 192.04296875 C135 190 135 190 133.65234375 187.72265625 C132.05991346 185.67181041 132.05991346 185.67181041 129.08203125 185.828125 C128.00308594 185.96734375 126.92414063 186.1065625 125.8125 186.25 C124.18248047 186.44335938 124.18248047 186.44335938 122.51953125 186.640625 C121.68808594 186.75921875 120.85664063 186.8778125 120 187 C119.34 185.68 118.68 184.36 118 183 C117.01 183.33 116.02 183.66 115 184 C113.28432339 187.50294871 113.28432339 187.50294871 112 191 C109.83125748 190.49396008 108.00032373 190.00016187 106 189 C105.319375 189.99 105.319375 189.99 104.625 191 C104.08875 191.66 103.5525 192.32 103 193 C102.34 193 101.68 193 101 193 C100.85304688 194.12148438 100.85304688 194.12148438 100.703125 195.265625 C99.67756494 199.25391413 97.69494156 200.96083685 94.59375 203.55078125 C89.73201915 206.26720014 84.45272401 206.05048819 79 206 C77.68 206 76.36 206 75 206 C75 206.66 75 207.32 75 208 C75.66 208.20625 76.32 208.4125 77 208.625 C79.73337197 209.87779549 81.59696157 211.15811755 83.9375 213 C86.49926375 215.01487037 87.84590965 215.96226359 91.0625 216.75 C95.32599496 218.56425317 96.9349085 221.76276523 99.38671875 225.58984375 C100.87057151 227.98751597 100.87057151 227.98751597 102.6796875 229.6328125 C104 231 104 231 104.4375 233.9375 C104 237 104 237 102.4765625 239.234375 C99.47963153 241.37098824 97.68309571 241.19647638 94.10742188 240.68945312 C93.03331055 240.50286133 93.03331055 240.50286133 91.9375 240.3125 C91.21755859 240.20744141 90.49761719 240.10238281 89.75585938 239.99414062 C86.72929443 239.53608112 83.90767214 238.96922405 81 238 C79.33339571 237.97466311 77.6667106 237.95445781 76 237.9375 C68.2405718 237.23209744 62.65240884 233.26006164 57.62646484 227.39794922 C55.82728019 225.13786431 54.08782436 222.85120134 52.43530273 220.48144531 C49.99716617 217.02287459 47.8374805 214.82889957 44 213 C43.34 213 42.68 213 42 213 C43.79686537 218.67431168 44.96218671 221.55954215 50 225 C52.64564595 227.42517546 53.85413078 228.56239233 55 232 C56.2065625 232.928125 56.2065625 232.928125 57.4375 233.875 C60.22907223 236.18996233 61.05081223 237.54840811 62 241 C62 242.32 62 243.64 62 245 C57.95499053 245.28637235 55.75419774 244.60358436 52.3125 242.5 C49.35535559 240.55488605 49.35535559 240.55488605 46 240 C45.34 241.32 44.68 242.64 44 244 C42.783125 244.04125 41.56625 244.0825 40.3125 244.125 C39.62800781 244.14820313 38.94351562 244.17140625 38.23828125 244.1953125 C36 244 36 244 33.57421875 243.01171875 C29.17016168 241.28083744 24.65986917 241.51430367 20 242 C17.18219466 243.38885248 17.18219466 243.38885248 15 245 C12.375 245.5 12.375 245.5 10 245 C8.98133771 243.34467377 7.98189187 241.67739862 7 240 C3.66871735 238.71736711 2.23410114 238.90887928 -1.12109375 240.21484375 C-2.76271484 241.06755859 -2.76271484 241.06755859 -4.4375 241.9375 C-8.91661797 244.25902632 -11.9303584 245.37467939 -17 245 C-17.33 243.35 -17.66 241.7 -18 240 C-16.4375 238.86067708 -14.875 237.72135417 -13.3125 236.58203125 C-11.48957325 234.38475347 -11.77660888 232.76911909 -12 230 C-10.3767313 229.3291288 -8.75132422 228.66342971 -7.125 228 C-6.22007812 227.62875 -5.31515625 227.2575 -4.3828125 226.875 C-2 226 -2 226 0 226 C-0.33 217.42 -0.66 208.84 -1 200 C-2.65 200.33 -4.3 200.66 -6 201 C-12.36018957 202.1563981 -12.36018957 202.1563981 -15.8125 201.3125 C-20.08166887 200.89395403 -22.81294006 202.37871305 -26.6328125 204.1875 C-29.26338201 205.09040175 -30.43100198 204.94709604 -33 204 C-32.34 202.68 -31.68 201.36 -31 200 C-34.91402949 201.26941497 -36.79072873 202.51167694 -39 206 C-39.72574219 205.84144531 -40.45148438 205.68289063 -41.19921875 205.51953125 C-48.83661698 204.10283116 -56.00237243 204.95727825 -63.5 206.6875 C-64.19456299 206.83598389 -64.88912598 206.98446777 -65.60473633 207.13745117 C-69.04188188 208.00021816 -70.76811641 208.71294875 -73.01953125 211.5 C-74.29751499 213.95805189 -74.29751499 213.95805189 -73.1875 216.3125 C-72.795625 216.869375 -72.40375 217.42625 -72 218 C-75.75 223.875 -75.75 223.875 -78 225 C-81.08184754 225.23639171 -84.16239474 225.38241707 -87.25 225.5234375 C-88.1575 225.68070313 -89.065 225.83796875 -90 226 C-92.18975773 229.28463659 -92.99806563 232.20696275 -94 236 C-96.97 236 -99.94 236 -103 236 C-104.32 239.3 -105.64 242.6 -107 246 C-107.99 246 -108.98 246 -110 246 C-109.4121875 247.546875 -109.4121875 247.546875 -108.8125 249.125 C-107.85938979 253.67060255 -108.56726022 255.1637565 -111 259 C-115.26672384 258.52591957 -117.2455048 256.11692878 -120 253 C-122.48880229 249.44456816 -122.28391934 246.25879012 -122 242 C-121.69404308 240.66011969 -121.3598799 239.32641447 -121 238 C-119.24601829 231.29198484 -119.24601829 231.29198484 -121.23828125 224.80859375 C-122.2931576 223.26161627 -123.3731113 221.73146244 -124.4765625 220.21875 C-125.88636951 218.16549261 -126.80479651 216.31591023 -127.6875 214 C-128.120625 213.01 -128.55375 212.02 -129 211 C-129.99 210.67 -130.98 210.34 -132 210 C-133.68704193 211.30745749 -135.35360035 212.64172029 -137 214 C-137.99 214 -138.98 214 -140 214 C-140.33 211.36 -140.66 208.72 -141 206 C-141.99 206.33 -142.98 206.66 -144 207 C-144 206.01 -144 205.02 -144 204 C-144.639375 204.45375 -145.27875 204.9075 -145.9375 205.375 C-148.66506194 206.82227776 -150.26637027 207.31630024 -153.21484375 207.83203125 C-157.97799019 208.84888815 -161.56832598 210.6700269 -165.625 213.3125 C-166.64533325 213.96412109 -166.64533325 213.96412109 -167.6862793 214.62890625 C-175.40557321 219.70558309 -182.19645746 225.78006142 -189 232 C-190.06797285 232.95948946 -191.13693528 233.91787897 -192.20703125 234.875 C-194.8249742 237.23009728 -197.43077911 239.59188537 -200 242 C-200.81082031 242.72703125 -201.62164062 243.4540625 -202.45703125 244.203125 C-215.4832312 258.52994399 -221.26663872 278.34604193 -220.44140625 297.40625 C-219.81641694 305.5676703 -217.58126607 313.26694426 -215 321 C-214.72124023 321.8441748 -214.44248047 322.68834961 -214.15527344 323.55810547 C-209.98220729 335.83468379 -204.64053409 345.35952279 -196 355 C-195.25492188 355.845625 -194.50984375 356.69125 -193.7421875 357.5625 C-192.55842376 358.90441841 -191.36192869 360.23539298 -190.14453125 361.546875 C-189 363 -189 363 -189 365 C-188.22849609 365.3403125 -188.22849609 365.3403125 -187.44140625 365.6875 C-185.38169319 366.79480174 -183.60570945 367.95171857 -181.71484375 369.3125 C-173.21064723 375.403511 -166.29512945 379.76790836 -155.4375 378.625 C-152.59677346 376.73118231 -152.59511525 376.25075967 -151.9375 373.0625 C-151.74414062 372.00095703 -151.74414062 372.00095703 -151.546875 370.91796875 C-151 369 -151 369 -148.6875 366.875 C-146 366 -146 366 -143.4375 366.5 C-139.56105985 368.88550163 -137.53184912 371.43990925 -136.0625 375.75 C-135.95445748 381.36821123 -137.35032185 386.20892087 -141.1875 390.375 C-150.06299523 395.50306391 -158.72740691 396.669385 -168.75 394.9375 C-169.53713379 394.80174561 -170.32426758 394.66599121 -171.13525391 394.52612305 C-178.13040127 393.19102387 -183.93001782 390.74711191 -190 387 C-191.00546875 386.38898438 -192.0109375 385.77796875 -193.046875 385.1484375 C-203.48957772 378.49585277 -211.85221213 371.05841207 -218.77783203 360.77734375 C-220.229224 358.66664988 -221.737329 356.60130471 -223.24609375 354.53125 C-229.69439056 345.57879534 -234.5315154 337.8590144 -237 327 C-237.50771862 325.3084067 -238.02558648 323.619843 -238.55078125 321.93359375 C-245.78960393 297.95941135 -245.60569136 272.66839672 -234 250 C-227.78067481 238.71163234 -221.10624704 228.16013016 -212 219 C-210.80376259 217.61164738 -209.61591804 216.21600913 -208.4375 214.8125 C-205.55623219 211.50069792 -202.42651814 208.68059956 -199.1015625 205.82421875 C-190.89420044 198.6999844 -179.80111296 188.20851241 -178.79467773 176.63989258 C-178.75802002 175.73392334 -178.7213623 174.8279541 -178.68359375 173.89453125 C-178.64169922 172.91162109 -178.59980469 171.92871094 -178.55664062 170.91601562 C-178.51732422 169.89185547 -178.47800781 168.86769531 -178.4375 167.8125 C-178.37272461 166.25885742 -178.37272461 166.25885742 -178.30664062 164.67382812 C-178.20055634 162.1160181 -178.09849854 159.55811155 -178 157 C-179.32 157.99 -180.64 158.98 -182 160 C-182.09321898 154.1789924 -181.9582367 148.74942021 -181 143 C-181.20625 142.175 -181.4125 141.35 -181.625 140.5 C-182.15514899 136.9656734 -180.7531575 135.0154309 -179 132 C-179.66 132.33 -180.32 132.66 -181 133 C-180.72694671 126.44672101 -178.18788859 122.93069452 -174 118 C-174.33 117.34 -174.66 116.68 -175 116 C-173.71340583 112.81737231 -172.79452553 110.55376022 -169.9375 108.5625 C-167.01437323 106.2051397 -166.7556404 103.58929192 -166 100 C-166 98.68 -166 97.36 -166 96 C-165.67 95.67 -165.34 95.34 -165 95 C-164.896875 93.865625 -164.79375 92.73125 -164.6875 91.5625 C-164.460625 90.386875 -164.23375 89.21125 -164 88 C-162.66666667 87.33333333 -161.33333333 86.66666667 -160 86 C-159.36047768 84.1150921 -158.72151855 82.22999053 -158.0859375 80.34375 C-153.08170761 69.54325383 -141.11962923 62.28285556 -131.84375 55.41796875 C-130.0941583 54.07241412 -128.45688505 52.65857977 -126.8125 51.1875 C-118.65576837 44.13551757 -109.70191619 38.43994427 -99.9375 33.91455078 C-95.36039502 31.66405898 -94.13967704 29.49155345 -92 25 C-81.55635925 16.99599373 -66.97766199 14.77690044 -54.50512695 11.75854492 C-51.78783787 11.06783361 -51.78783787 11.06783361 -49 9 C-45.75760123 8.86147295 -42.56651676 9.00449647 -39.32421875 9.125 C-35.81534212 8.99305634 -33.30716232 8.12494268 -30 7 C-27.48687886 6.7132499 -24.96329851 6.510445 -22.4375 6.375 C-21.7465625 6.33705322 -21.055625 6.29910645 -20.34375 6.26000977 C-13.89650269 5.93395058 -7.45424788 5.90053385 -1 6 C-0.67 4.02 -0.34 2.04 0 0 Z " fill="#000000" transform="translate(243,58)"/>
</svg>
